<svg width="30" height="30" viewBox="0 0 30 30" fill="none" xmlns="http://www.w3.org/2000/svg">
<path d="M6.25 20V13.75C6.25 13.3958 6.36979 13.099 6.60938 12.8594C6.84896 12.6198 7.14583 12.5 7.5 12.5C7.85417 12.5 8.15104 12.6198 8.39062 12.8594C8.63021 13.099 8.75 13.3958 8.75 13.75V20C8.75 20.3542 8.63021 20.651 8.39062 20.8906C8.15104 21.1302 7.85417 21.25 7.5 21.25C7.14583 21.25 6.84896 21.1302 6.60938 20.8906C6.36979 20.651 6.25 20.3542 6.25 20ZM13.75 20V13.75C13.75 13.3958 13.8698 13.099 14.1094 12.8594C14.349 12.6198 14.6458 12.5 15 12.5C15.3542 12.5 15.651 12.6198 15.8906 12.8594C16.1302 13.099 16.25 13.3958 16.25 13.75V20C16.25 20.3542 16.1302 20.651 15.8906 20.8906C15.651 21.1302 15.3542 21.25 15 21.25C14.6458 21.25 14.349 21.1302 14.1094 20.8906C13.8698 20.651 13.75 20.3542 13.75 20ZM3.75 26.25C3.39583 26.25 3.09896 26.1302 2.85938 25.8906C2.61979 25.651 2.5 25.3542 2.5 25C2.5 24.6458 2.61979 24.349 2.85938 24.1094C3.09896 23.8698 3.39583 23.75 3.75 23.75H26.25C26.6042 23.75 26.901 23.8698 27.1406 24.1094C27.3802 24.349 27.5 24.6458 27.5 25C27.5 25.3542 27.3802 25.651 27.1406 25.8906C26.901 26.1302 26.6042 26.25 26.25 26.25H3.75ZM21.25 20V13.75C21.25 13.3958 21.3698 13.099 21.6094 12.8594C21.849 12.6198 22.1458 12.5 22.5 12.5C22.8542 12.5 23.151 12.6198 23.3906 12.8594C23.6302 13.099 23.75 13.3958 23.75 13.75V20C23.75 20.3542 23.6302 20.651 23.3906 20.8906C23.151 21.1302 22.8542 21.25 22.5 21.25C22.1458 21.25 21.849 21.1302 21.6094 20.8906C21.3698 20.651 21.25 20.3542 21.25 20ZM26.25 10H3.625C3.3125 10 3.04688 9.89062 2.82812 9.67188C2.60938 9.45312 2.5 9.1875 2.5 8.875V8.1875C2.5 7.95833 2.55729 7.76042 2.67188 7.59375C2.78646 7.42708 2.9375 7.29167 3.125 7.1875L13.875 1.8125C14.2292 1.64583 14.6042 1.5625 15 1.5625C15.3958 1.5625 15.7708 1.64583 16.125 1.8125L26.8125 7.15625C27.0417 7.26042 27.2135 7.41667 27.3281 7.625C27.4427 7.83333 27.5 8.05208 27.5 8.28125V8.75C27.5 9.10417 27.3802 9.40104 27.1406 9.64062C26.901 9.88021 26.6042 10 26.25 10ZM8.0625 7.5H21.9375L15 4.0625L8.0625 7.5Z" fill="white"/>
</svg>
